HIERARCHY
ROOT Hips
{
	OFFSET 0.00000 0.00000 0.00000
	CHANNELS 6 Xposition Yposition Zposition Zrotation Yrotation Xrotation 
	JOINT LHipJoint
	{
		OFFSET 0 0 0
		CHANNELS 3 Zrotation Yrotation Xrotation
		JOINT LeftUpLeg
		{
			OFFSET 1.53139 -1.83434 0.76626
			CHANNELS 3 Zrotation Yrotation Xrotation
			JOINT LeftLeg
			{
				OFFSET 2.56112 -7.03663 0.00000
				CHANNELS 3 Zrotation Yrotation Xrotation
				JOINT LeftFoot
				{
					OFFSET 2.59983 -7.14299 0.00000
					CHANNELS 3 Zrotation Yrotation Xrotation
					JOINT LeftToeBase
					{
						OFFSET 0.13742 -0.37757 2.00054
						CHANNELS 3 Zrotation Yrotation Xrotation
						End Site
						{
							OFFSET 0.00000 -0.00000 1.02897
						}
					}
				}
			}
		}
	}
	JOINT RHipJoint
	{
		OFFSET 0 0 0
		CHANNELS 3 Zrotation Yrotation Xrotation
		JOINT RightUpLeg
		{
			OFFSET -1.40122 -1.83435 0.76627
			CHANNELS 3 Zrotation Yrotation Xrotation
			JOINT RightLeg
			{
				OFFSET -2.54052 -6.98003 0.00000
				CHANNELS 3 Zrotation Yrotation Xrotation
				JOINT RightFoot
				{
					OFFSET -2.63179 -7.23079 0.00000
					CHANNELS 3 Zrotation Yrotation Xrotation
					JOINT RightToeBase
					{
						OFFSET -0.24131 -0.66299 2.03908
						CHANNELS 3 Zrotation Yrotation Xrotation
						End Site
						{
							OFFSET -0.00000 -0.00000 1.07391
						}
					}
				}
			}
		}
	}
	JOINT LowerBack
	{
		OFFSET 0 0 0
		CHANNELS 3 Zrotation Yrotation Xrotation
		JOINT Spine
		{
			OFFSET 0.01174 2.10302 -0.29778
			CHANNELS 3 Zrotation Yrotation Xrotation
			JOINT Spine1
			{
				OFFSET 0.00772 2.13227 -0.01247
				CHANNELS 3 Zrotation Yrotation Xrotation
				JOINT Neck
				{
					OFFSET 0 0 0
					CHANNELS 3 Zrotation Yrotation Xrotation
					JOINT Neck1
					{
						OFFSET -0.09219 1.60848 0.31481
						CHANNELS 3 Zrotation Yrotation Xrotation
						JOINT Head
						{
							OFFSET 0.13974 1.65456 -0.31134
							CHANNELS 3 Zrotation Yrotation Xrotation
							End Site
							{
								OFFSET 0.04742 1.69515 -0.14578
							}
						}
					}
				}
				JOINT LeftShoulder
				{
					OFFSET 0 0 0
					CHANNELS 3 Zrotation Yrotation Xrotation
					JOINT LeftArm
					{
						OFFSET 3.24909 1.02882 -0.23993
						CHANNELS 3 Zrotation Yrotation Xrotation
						JOINT LeftForeArm
						{
							OFFSET 5.32955 -0.00000 -0.00000
							CHANNELS 3 Zrotation Yrotation Xrotation
							JOINT LeftHand
							{
								OFFSET 3.69232 -0.00000 -0.00000
								CHANNELS 3 Zrotation Yrotation Xrotation
								JOINT LeftFingerBase
								{
									OFFSET 0 0 0
									CHANNELS 3 Zrotation Yrotation Xrotation
									JOINT LeftHandIndex1
									{
										OFFSET 0.53660 -0.00000 -0.00000
										CHANNELS 3 Zrotation Yrotation Xrotation
										End Site
										{
											OFFSET 0.43262 -0.00000 -0.00000
										}
									}
								}
								JOINT LThumb
								{
									OFFSET 0 0 0
									CHANNELS 3 Zrotation Yrotation Xrotation
									End Site
									{
										OFFSET 0.43922 -0.00000 0.43922
									}
								}
							}
						}
					}
				}
				JOINT RightShoulder
				{
					OFFSET 0 0 0
					CHANNELS 3 Zrotation Yrotation Xrotation
					JOINT RightArm
					{
						OFFSET -3.21387 0.93002 -0.34594
						CHANNELS 3 Zrotation Yrotation Xrotation
						JOINT RightForeArm
						{
							OFFSET -5.23431 -0.00000 0.00000
							CHANNELS 3 Zrotation Yrotation Xrotation
							JOINT RightHand
							{
								OFFSET -3.55301 -0.00000 -0.00000
								CHANNELS 3 Zrotation Yrotation Xrotation
								JOINT RightFingerBase
								{
									OFFSET 0 0 0
									CHANNELS 3 Zrotation Yrotation Xrotation
									JOINT RightHandIndex1
									{
										OFFSET -0.77252 -0.00000 -0.00000
										CHANNELS 3 Zrotation Yrotation Xrotation
										End Site
										{
											OFFSET -0.62283 -0.00000 -0.00000
										}
									}
								}
								JOINT RThumb
								{
									OFFSET 0 0 0
									CHANNELS 3 Zrotation Yrotation Xrotation
									End Site
									{
										OFFSET -0.63234 -0.00000 0.63234
									}
								}
							}
						}
					}
				}
			}
		}
	}
}
MOTION
Frames: 10
Frame Time: 0.105263
0.00 0.00 0.00 0 0 0 0 0 0 -21 0 0 0 0 0 0 0 0 0 0 0 0 0 0 21 0 0 0 0 0 0 0 0 0 0 0 0 0 0 0 0 0 0 0 0 0 0 -16 0 0 21 0 0 11 0 0 0 -8 0 0 0 0 0 0 0 0 0 0 0 0 0 0 0 0 0 0 0 0 8 0 0 0 0 0 0 0 0 0 0 0 0 0 0 0 0 0
0.00 0.00 0.00 7.9060 -75.6870 -5.6457 0.0000 0.0000 0.0000 -20.5430 -17.9733 -12.5343 3.6899 11.7359 34.8041 -0.1351 -12.2450 -6.6028 0.7803 -5.6396 -15.7421 0.0000 0.0000 0.0000 24.0152 0.6366 -17.5202 -3.3533 -11.2461 33.1143 -0.2953 -0.4696 -10.4452 -0.1754 -2.6978 7.4386 -0.1562 1.9567 13.7954 -0.1513 2.4914 1.7384 -0.5316 1.1940 -5.8939 -12.9914 -4.6305 -19.9647 5.7088 -4.6747 32.7157 3.7127 -3.0005 15.2968 0.0000 0.0000 0.0000 -86.2495 4.0525 27.8612 21.5652 -32.4821 -6.3507 -0.0000 -0.0000 2.5221 20.2020 24.6215 8.7158 -7.1250 0.0000 -0.0000 -10.0441 55.7253 -2.6628 0.0000 0.0000 0.0000 88.5527 -0.1586 24.9366 -16.1251 25.6899 -3.7000 0.0000 0.0000 6.6581 -14.5193 8.5158 -2.1962 7.1250 -0.0000 -0.0000 8.9138 -21.2303 5.1424
0.00 0.00 0.00 5.4443 -73.9287 -5.2810 0.0000 0.0000 0.0000 -19.8407 -10.2523 -10.3957 7.2335 15.5254 49.7520 -0.0355 -3.3882 0.6354 0.0617 -1.6026 -4.4086 0.0000 0.0000 0.0000 25.1013 -2.5703 -13.8926 -2.0803 -9.0314 25.8936 -0.0928 -2.4581 -7.2066 -0.1732 -2.6810 7.3919 0.8550 1.5563 13.2638 0.5095 2.1678 1.3813 -0.3371 1.0246 -5.9675 -12.8433 -4.5346 -19.3769 5.3766 -4.7733 34.7349 3.5763 -3.1868 16.1371 0.0000 0.0000 0.0000 -86.4365 8.3196 26.5374 20.0032 -30.6463 -5.5330 -0.0000 -0.0000 3.8891 19.4217 24.2267 8.2325 -7.1250 0.0000 -0.0000 -10.6763 55.1685 -2.6881 0.0000 0.0000 0.0000 88.3534 0.3330 18.4367 -14.9889 24.1306 -3.2214 0.0000 0.0000 8.5171 -15.0015 7.9272 -2.1166 7.1250 -0.0000 -0.0000 8.5863 -21.8098 4.8350
0.00 0.00 0.00 6.8695 -72.2880 -7.6540 0.0000 0.0000 0.0000 -18.9773 -1.6376 -3.2602 7.4660 15.7121 50.6156 0.3253 -7.6647 16.2005 0.1344 -2.3630 -6.5101 0.0000 0.0000 0.0000 23.9961 -2.6727 -13.6841 -1.6854 -8.1776 23.2548 0.0205 -3.8999 -4.5715 -0.4812 -4.4486 12.3422 -0.1061 1.0063 11.6662 0.8089 1.3396 0.7914 0.6894 0.6571 -5.7374 -12.6851 -4.4628 -20.0011 5.3867 -4.7023 35.4977 3.5827 -3.1682 16.6587 -0.0000 0.0000 0.0000 -87.1357 8.3779 21.5491 15.0596 -24.2290 -3.2503 -0.0000 -0.0000 8.5634 18.5746 24.9024 8.0538 -7.1250 0.0000 -0.0000 -11.8630 55.6783 -3.1405 -0.0000 0.0000 0.0000 87.3921 -1.0279 20.7290 -17.8876 28.0131 -4.4963 0.0000 0.0000 3.6282 -15.1537 7.7868 -2.1015 7.1250 -0.0000 -0.0000 8.4809 -21.9469 4.7476
0.00 0.00 0.00 9.2537 -70.7123 -10.3482 0.0000 0.0000 0.0000 -20.8582 0.4776 6.4265 3.9723 12.1234 36.1700 1.0972 -7.1029 23.5545 0.0114 -0.6907 -1.8982 0.0000 0.0000 0.0000 21.7504 -1.9890 -18.2501 -2.2133 -9.2970 26.7287 0.0153 -3.0491 -3.3611 -0.3317 -3.7017 10.2389 -1.0356 0.4010 10.6293 0.6601 0.4203 0.7241 1.2114 0.2275 -5.2200 -12.5349 -4.1473 -20.3290 5.2388 -4.1997 35.8799 3.6013 -2.9797 16.8601 -0.0000 0.0000 0.0000 -87.2286 6.9275 21.8331 14.6502 -23.6565 -3.0842 -0.0000 -0.0000 8.8553 19.2633 25.6361 8.5981 -7.1250 0.0000 -0.0000 -11.5038 56.5550 -3.2891 -0.0000 0.0000 0.0000 86.9334 -0.9546 22.5823 -20.3510 31.0629 -5.7113 0.0000 0.0000 1.5729 -15.3820 8.4871 -2.3251 7.1250 -0.0000 -0.0000 8.2938 -21.2197 4.7789
0.00 0.00 0.00 9.1502 -66.8213 -10.1501 0.0000 0.0000 0.0000 -23.3569 -3.0538 15.1991 1.3759 7.4230 20.9747 -0.4314 -12.9017 10.9183 0.1959 -2.8503 -7.8623 0.0000 0.0000 0.0000 18.9237 -0.6463 -24.5226 -2.8492 -10.4468 30.4362 0.0496 -4.3733 -3.5991 -1.0106 -6.3963 17.9387 -2.4380 -0.5941 10.7530 1.0243 -1.0554 1.0287 2.6022 -0.4744 -4.8933 -13.0813 -4.2291 -20.1860 6.1055 -4.3630 34.8101 4.0254 -2.9405 16.3389 0.0000 0.0000 0.0000 -88.1059 1.2903 28.0450 15.0090 -24.1587 -3.2296 -0.0000 -0.0000 7.7728 19.2254 24.9653 8.3732 -7.1250 0.0000 -0.0000 -11.2186 55.8736 -3.0201 0.0000 0.0000 0.0000 86.1971 -0.8522 22.2549 -23.5868 34.7243 -7.4699 0.0000 -0.0000 -0.3655 -15.8410 8.5694 -2.4210 7.1250 -0.0000 -0.0000 7.9613 -21.1132 4.6029
0.00 0.00 0.00 5.1380 -59.0016 -6.4275 0.0000 0.0000 0.0000 -23.0749 -5.6898 3.5770 1.0353 6.4715 18.1589 -1.1949 -19.2601 3.3482 0.1538 -2.5273 -6.9653 0.0000 0.0000 0.0000 14.1573 1.3017 -24.3932 -5.8424 -14.2739 44.3461 -0.1639 1.5523 -7.2616 -0.0344 -1.1969 3.2907 -5.4387 -0.7620 12.3671 0.2384 -1.7660 1.9480 3.6063 -0.8033 -4.7131 -12.3357 -3.2134 -19.7579 5.5026 -2.9358 35.8395 3.9500 -2.3732 16.5255 -0.0000 -0.0000 0.0000 -86.7800 -5.5921 39.2951 22.9162 -33.9970 -7.0914 -0.0000 -0.0000 1.7471 20.6020 24.0259 8.7018 -7.1250 0.0000 -0.0000 -9.3682 55.1999 -2.3613 -0.0000 -0.0000 0.0000 92.4633 -7.0479 9.1460 -16.6669 26.4166 -3.9380 0.0000 0.0000 5.5188 -14.3219 7.1382 -1.8171 7.1250 -0.0000 -0.0000 9.1111 -22.6412 4.9628
0.00 0.00 0.00 2.7576 -19.7969 -2.2747 0.0000 0.0000 0.0000 -20.7988 -5.2559 -5.5622 0.9838 6.3134 17.6966 -0.2056 -8.4014 5.7814 1.4369 -7.5787 -21.4417 0.0000 0.0000 0.0000 18.7319 -2.9099 -5.9369 -7.9738 -16.0999 52.4682 0.1282 7.2195 6.3275 -0.0860 1.8916 -5.2062 -2.5072 0.7648 8.3917 0.4973 0.7993 0.7069 1.8325 0.4410 -4.0151 -10.1684 -0.5658 -16.4184 3.5572 1.0893 39.7443 3.6188 -0.7033 17.2689 0.0000 -0.0000 0.0000 -83.7026 0.3653 28.8683 17.5390 -27.5629 -4.3338 -0.0000 -0.0000 5.0166 21.8603 24.9687 9.6120 -7.1250 0.0000 -0.0000 -8.4543 56.4237 -2.3800 0.0000 -0.0000 0.0000 91.6483 -5.0280 17.0812 -16.9819 26.8339 -4.0791 0.0000 0.0000 7.5811 -16.2241 7.1834 -2.0839 7.1250 -0.0000 -0.0000 7.7225 -22.5221 4.2128
0.00 0.00 0.00 3.0042 -18.7588 -1.1409 0.0000 0.0000 0.0000 -20.7941 -6.7295 -11.3995 1.1718 6.8711 19.3340 -0.3359 -10.3540 5.6501 1.4967 -7.7279 -21.8907 0.0000 0.0000 0.0000 21.8582 -2.3433 3.3862 -4.1182 -12.3161 36.8594 -0.1830 6.6326 13.0882 -0.2837 -3.4255 9.4659 -0.6867 2.1047 7.3619 -0.5259 2.7215 0.4844 -0.4400 1.3567 -3.6302 -10.2173 -0.6464 -17.3588 3.0396 1.4552 40.2476 3.5028 -0.6360 17.7842 0.0000 -0.0000 0.0000 -82.0188 1.0603 16.3683 14.2413 -23.0786 -2.9220 -0.0000 -0.0000 9.2159 22.1128 25.9831 10.0935 -7.1250 0.0000 -0.0000 -8.6431 57.5179 -2.6626 0.0000 -0.0000 0.0000 91.3518 -1.3556 21.2879 -18.6685 29.0046 -4.8690 0.0000 0.0000 5.3498 -16.4824 6.8272 -2.0144 7.1250 -0.0000 -0.0000 7.5449 -22.8792 4.0521
0.00 0.00 0.00 10.1300 19.1214 1.9062 0.0000 0.0000 0.0000 -30.9050 2.4744 1.7171 0.7708 5.6062 15.6459 0.5014 -3.6272 -12.6292 0.1158 -2.1943 -6.0430 0.0000 0.0000 0.0000 7.5511 9.7438 -30.9984 -6.0481 -14.4748 45.1744 -0.6695 2.4315 -14.8197 -0.1230 2.2609 -6.2274 -5.2995 -0.3876 11.5438 -0.0402 -1.1350 2.3451 3.1116 -0.4981 -3.9097 -10.5048 0.0653 -13.3857 1.7988 3.4350 42.9902 3.4364 0.0667 18.2323 -0.0000 -0.0000 0.0000 -89.1406 0.3725 19.6515 21.2010 -32.0622 -6.1563 -0.0000 -0.0000 2.3570 20.5671 27.2354 9.7437 -7.1250 0.0000 -0.0000 -10.9425 58.4443 -3.6258 -0.0000 -0.0000 0.0000 91.7197 -5.3094 7.9644 -16.0118 25.5367 -3.6510 0.0000 0.0000 6.9312 -15.2210 5.7275 -1.5554 7.1250 -0.0000 -0.0000 8.5171 -24.0525 4.3525
